<?xml version="1.0" encoding="UTF-8" standalone="no"?>
<!-- Created with Inkscape (http://www.inkscape.org/) -->

<svg
   xmlns:dc="http://purl.org/dc/elements/1.1/"
   xmlns:cc="http://creativecommons.org/ns#"
   xmlns:rdf="http://www.w3.org/1999/02/22-rdf-syntax-ns#"
   xmlns:svg="http://www.w3.org/2000/svg"
   xmlns="http://www.w3.org/2000/svg"
   xmlns:sodipodi="http://sodipodi.sourceforge.net/DTD/sodipodi-0.dtd"
   xmlns:inkscape="http://www.inkscape.org/namespaces/inkscape"
   width="744.09448819"
   height="1052.3622047"
   id="svg2"
   version="1.1"
   inkscape:version="0.48.4 r9939"
   inkscape:export-filename="/home/daniel/repositories/otter/logo.png"
   inkscape:export-xdpi="342.09"
   inkscape:export-ydpi="342.09"
   sodipodi:docname="New document 1">
  <defs
     id="defs4" />
  <sodipodi:namedview
     id="base"
     pagecolor="#ffffff"
     bordercolor="#666666"
     borderopacity="1.0"
     inkscape:pageopacity="0.0"
     inkscape:pageshadow="2"
     inkscape:zoom="0.7"
     inkscape:cx="403.96541"
     inkscape:cy="463.85325"
     inkscape:document-units="px"
     inkscape:current-layer="layer1"
     showgrid="false"
     inkscape:window-width="1680"
     inkscape:window-height="1026"
     inkscape:window-x="0"
     inkscape:window-y="24"
     inkscape:window-maximized="1" />
  <metadata
     id="metadata7">
    <rdf:RDF>
      <cc:Work
         rdf:about="">
        <dc:format>image/svg+xml</dc:format>
        <dc:type
           rdf:resource="http://purl.org/dc/dcmitype/StillImage" />
        <dc:title></dc:title>
      </cc:Work>
    </rdf:RDF>
  </metadata>
  <g
     inkscape:label="Layer 1"
     inkscape:groupmode="layer"
     id="layer1">
    <path
       style="opacity:1;fill:#5b5d47;fill-opacity:1;stroke:#000000;stroke-width:1px;stroke-linecap:butt;stroke-linejoin:miter;stroke-opacity:1"
       d="m 347.14286,268.07647 c 74.7619,-5.23809 148.09523,2.38095 177.14285,57.14286 37.14286,35.71428 53.27522,88.35491 51.42858,137.14285 -1.24097,32.78618 -15.71428,63.09523 -41.42857,89.28571 -9.52381,4.28572 -7.99074,9.9692 -17.14286,15.00001 -94.2747,73.00973 -167.88875,58.61303 -271.42857,30 -36.57126,-20.54703 -53.33333,-64.76191 -80,-97.14286 -43.33333,-38.09524 -13.80953,-99.04762 2.85714,-140 29.52381,-66.19048 97.61905,-88.09524 178.57143,-91.42857 z"
       id="path2996"
       inkscape:connector-curvature="0"
       sodipodi:nodetypes="ccacccccc" />
    <path
       style="fill:#f9f9f9;stroke:#000000;stroke-width:1px;stroke-linecap:butt;stroke-linejoin:miter;stroke-opacity:1;fill-opacity:1"
       d="m 312.85714,466.6479 c -15.28393,23.11281 3.12176,64.75885 27.14286,78.57143 27.7689,15.96763 62.2834,-19.96043 94.28571,-18.57143 22.28386,0.96719 42.68583,24.13474 64.28572,18.57143 20.21668,-5.20705 44.78235,-23.41514 44.28571,-44.28572 -0.50522,-21.23123 -25.93623,-41.71711 -47.14285,-42.85714 -21.77995,-1.17086 -31.12152,36.75497 -52.85715,38.57143 -25.46629,2.12823 -43.51063,-29.28396 -68.57143,-34.28572 -20.12897,-4.01744 -50.1068,-12.8354 -61.42857,4.28572 z"
       id="path2998"
       inkscape:connector-curvature="0"
       sodipodi:nodetypes="aaaaaaaaa" />
    <path
       sodipodi:type="arc"
       style="fill:#000000;fill-opacity:1;stroke:none"
       id="path3000"
       sodipodi:cx="311.42856"
       sodipodi:cy="418.07648"
       sodipodi:rx="24.285715"
       sodipodi:ry="25.714285"
       d="m 335.71427,418.07648 a 24.285715,25.714285 0 1 1 -48.57143,0 24.285715,25.714285 0 1 1 48.57143,0 z"
       transform="translate(-2.8571429,-2.8571429)" />
    <path
       sodipodi:type="arc"
       style="fill:#000000;fill-opacity:1;stroke:none"
       id="path3002"
       sodipodi:cx="505"
       sodipodi:cy="398.07648"
       sodipodi:rx="13.571428"
       sodipodi:ry="20"
       d="m 518.57143,398.07648 a 13.571428,20 0 1 1 -27.14286,0 13.571428,20 0 1 1 27.14286,0 z" />
    <path
       style="fill:#000000;stroke:#000000;stroke-width:1px;stroke-linecap:butt;stroke-linejoin:miter;stroke-opacity:1;fill-opacity:1"
       d="m 375.71429,463.79075 c -19.99934,-6.1926 39.06438,-18.42362 60,-18.57142 16.87581,-0.11914 54.33389,9.12528 48.57142,14.28571 -26.76261,23.96657 -31.1431,41.52913 -48.57142,38.57143 -17.79138,-3.01931 -36.80273,-27.10291 -60,-34.28572 z"
       id="path3004"
       inkscape:connector-curvature="0"
       sodipodi:nodetypes="sasss" />
    <path
       style="fill:#000000;fill-opacity:1;stroke:#000000;stroke-width:1px;stroke-linecap:butt;stroke-linejoin:miter;stroke-opacity:1"
       d="m 365,549.50504 c 32.85715,25.47619 90,14.5238 117.14285,-5.00001 C 466.42857,532.83837 454.28572,525.45742 425,526.64789 c -20,7.61905 -40,15.2381 -60,22.85715 z"
       id="path3776"
       inkscape:connector-curvature="0"
       sodipodi:nodetypes="cccc" />
    <path
       style="fill:#6a6e68;fill-opacity:1;stroke:#000000;stroke-width:0;stroke-linecap:butt;stroke-linejoin:miter;stroke-miterlimit:4;stroke-opacity:1;stroke-dasharray:none"
       d="m 150.00001,473.43361 c -18.80953,-19.04762 -33.69049,-48.45238 -37.14287,-86.42857 11.07143,-20 28.92857,-23.57142 60,-21.42857 -24.7619,25.47619 -32.38094,75.95238 -22.85713,107.85714 z"
       id="path3778"
       inkscape:connector-curvature="0"
       sodipodi:nodetypes="cccc" />
    <path
       style="fill:#1b1f11;fill-opacity:1;stroke:#000000;stroke-width:0;stroke-linecap:butt;stroke-linejoin:miter;stroke-miterlimit:4;stroke-opacity:1;stroke-dasharray:none"
       d="m 520.71429,324.1479 c 22.02381,19.52381 40.11905,42.61905 40.71428,68.21428 10.35715,-10 10.71429,-34.64286 16.42858,-48.92857 -11.30953,-15.59524 -34.76191,-20.11905 -57.14286,-19.28571 z"
       id="path3780"
       inkscape:connector-curvature="0"
       sodipodi:nodetypes="cccc" />
    <path
       style="fill:none;stroke:#000000;stroke-width:2;stroke-linecap:butt;stroke-linejoin:miter;stroke-opacity:1;stroke-miterlimit:4;stroke-dasharray:none"
       d="m 53.571429,685.93361 264.285711,-175"
       id="path3782"
       inkscape:connector-curvature="0" />
    <path
       style="fill:none;stroke:#000000;stroke-width:2;stroke-linecap:butt;stroke-linejoin:miter;stroke-opacity:1;stroke-miterlimit:4;stroke-dasharray:none"
       d="M 75.714286,630.21933 323.57143,505.21932"
       id="path3784"
       inkscape:connector-curvature="0" />
    <path
       style="fill:none;stroke:#000000;stroke-width:2;stroke-linecap:butt;stroke-linejoin:miter;stroke-opacity:1;stroke-miterlimit:4;stroke-dasharray:none"
       d="m 145,743.79075 c 1.42857,-3.57142 181.42857,-233.57143 181.42857,-233.57143"
       id="path3786"
       inkscape:connector-curvature="0" />
    <path
       style="fill:none;stroke:#000000;stroke-width:2;stroke-linecap:butt;stroke-linejoin:miter;stroke-opacity:1;stroke-miterlimit:4;stroke-dasharray:none"
       d="M 532.14286,491.6479 657.85714,445.93361"
       id="path3788"
       inkscape:connector-curvature="0" />
    <path
       style="fill:none;stroke:#000000;stroke-width:2;stroke-linecap:butt;stroke-linejoin:miter;stroke-opacity:1;stroke-miterlimit:4;stroke-dasharray:none"
       d="m 527.85714,505.21932 120,59.28572"
       id="path3790"
       inkscape:connector-curvature="0" />
    <path
       style="fill:none;stroke:#000000;stroke-width:2;stroke-linecap:butt;stroke-linejoin:miter;stroke-opacity:1;stroke-miterlimit:4;stroke-dasharray:none"
       d="M 527.85714,498.79075 650,501.6479"
       id="path3792"
       inkscape:connector-curvature="0" />
  </g>
</svg>
